PathFileType	4	(X/Y/Z)	Patient4_TMGait_0pt5_01_left_08.trc.trc
DataRate	CameraRate	NumFrames	NumMarkers	Units	OrigDataRate	OrigDataStartFrame	OrigNumFrames
75.675675675676	75.675675675676	4	33	mm	75.675675675676	89	       141
Frame#	Time	L.ASIS			Sacral			L.Shoulder			Chest			R.Shoulder			Neck			R.ASIS			R.Thigh.Superior			R.Thigh.Lateral			R.Thigh.Inferior			R.Patella			L.Thigh.Superior			L.Thigh.Lateral			L.Thigh.Inferior			L.Patella			L.Shank.Superior			L.Shank.Lateral			L.Shank.Inferior			R.Shank.Superior			R.Shank.Lateral			R.Shank.Inferior			R.Heel			R.Midfoot.Superior			R.Midfoot.Lateral			R.Toe			L.Heel			L.Midfoot.Lateral			L.Midfoot.Superior			L.Toe			L.Elbow			L.Wrist			R.Elbow			R.Wrist			
		X1	Y1	Z1	X2	Y2	Z2	X3	Y3	Z3	X4	Y4	Z4	X5	Y5	Z5	X6	Y6	Z6	X7	Y7	Z7	X8	Y8	Z8	X9	Y9	Z9	X10	Y10	Z10	X11	Y11	Z11	X12	Y12	Z12	X13	Y13	Z13	X14	Y14	Z14	X15	Y15	Z15	X16	Y16	Z16	X17	Y17	Z17	X18	Y18	Z18	X19	Y19	Z19	X20	Y20	Z20	X21	Y21	Z21	X22	Y22	Z22	X23	Y23	Z23	X24	Y24	Z24	X25	Y25	Z25	X26	Y26	Z26	X27	Y27	Z27	X28	Y28	Z28	X29	Y29	Z29	X30	Y30	Z30	X31	Y31	Z31	X32	Y32	Z32	X33	Y33	Z33	

89	11.932857142857	735.385420660759	960.283569362389	334.526911486296	516.880324957157	993.888358040542	486.142713814445	682.124389636291	1439.067865085662	330.659471987811	779.485744023838	1363.961204553259	493.034498722059	683.576157178960	1425.596618804173	667.246916138572	672.653583446407	1491.450059798556	484.431068583946	745.528041729531	937.197937590585	608.028439723860	811.046134078464	748.019869650312	575.711595664824	743.019923390010	631.851683551376	633.296882401450	827.357611970308	588.750603602993	553.598352283896	839.132321254464	498.286083363078	559.124235360059	776.899245887613	737.906110830362	354.675615490428	689.712232093437	625.063044803167	288.089982511437	773.423803583689	539.311769009824	345.925308423551	764.571647104120	453.029089096363	342.430761498433	695.795242823167	394.873344950098	337.441877503432	556.389526411197	351.092986077070	286.636752613910	540.368298998424	225.227732871613	346.872115160452	814.052449403189	407.741455358169	566.271531925973	747.745474977561	300.669099836229	626.731527683936	794.226898409151	208.068261763655	564.463587269580	665.505819476722	42.347731581350	532.647880221786	836.123889856670	97.930019565980	570.409082226472	748.147636728044	36.320124083692	608.327949550517	956.086154393192	45.547907629572	598.961321734617	347.479590940392	155.976322426082	379.091331659193	411.209647995532	112.849090856891	302.878777564105	513.475783772229	127.494792492111	328.218788850154	598.707888204813	31.592479641083	308.136398601360	673.874064881828	1095.098346533448	185.659592126089	861.489252746340	913.476997805978	212.946980181336	642.570259308440	1080.864024653163	777.996744819044	798.548288472664	873.125190475924	772.177675691994	
90	11.946071428571	734.573019629080	960.902409964516	336.598689553833	516.995092329176	994.730445079393	489.750155841245	681.137526370335	1439.837481007932	333.386136543277	780.015547054532	1364.562310532170	494.773371064180	685.856054145299	1426.097235932654	669.947579352155	673.064733691775	1492.149555665666	487.336188650341	746.412364140650	937.961105131660	610.001352571309	809.902379459679	747.322077678110	578.686411069815	740.513600889600	631.879284116240	635.590504836255	824.554251483413	588.114302150753	555.988517422659	835.325681026659	497.620248497891	561.262982296960	781.130576556869	740.899538231748	356.513185846293	697.634783577825	626.254875822355	289.215477975670	784.040317315122	542.265675459977	346.537804740207	776.414938443731	454.935935273458	342.328384589111	706.216733321245	396.759765827868	337.620343608201	565.034049926550	357.170877768935	287.918122040609	546.217966936095	231.447525620348	347.617423311606	809.625914476762	407.290258310235	568.032648975484	742.515107869215	300.423939321667	627.856051508051	788.562974959064	207.781805369189	565.380213952719	658.922924654117	42.434398425079	532.841629906963	829.698643951257	97.856801203201	570.770277683184	741.553946263029	36.286869980032	608.506477767192	949.556941954994	45.100117912059	599.193000217812	351.343746077727	169.382377062876	381.109150887830	412.738886363850	123.803868472028	304.180072901237	516.113245978925	133.615614788004	328.820387194016	596.446320824242	31.880246429195	307.516661383385	669.438952749808	1095.558064058966	189.106947426044	853.552664112593	909.665183915457	213.020806201066	647.734936692828	1081.768807439286	782.914708595640	807.128062341677	876.755752935181	776.455293076282	
91	11.959285714286	733.648907497396	961.484044280868	338.523160109663	516.973365427184	995.525321456823	493.206638829146	680.012433087991	1440.541377766928	335.944026515521	780.425269601118	1365.113203596371	496.337568064181	688.016506301225	1426.578039334154	672.422482254477	673.425803531084	1492.821505062176	490.046281917666	747.107569769252	938.700757885185	611.891344401054	808.515652736865	746.685129599679	581.442912346786	737.853700747653	631.944691208098	637.780874018696	821.563502755995	587.517476086059	558.277154457423	831.312332555319	497.002101787882	563.371963479762	784.967191340389	744.099481729109	358.298290776464	705.028130590053	627.845757783270	290.190756605895	793.946075066883	545.668855160067	347.011255858213	787.662135713478	457.402886307177	342.173852106451	716.377658759912	399.066238313864	337.702861818447	573.684918485916	362.998231361584	289.214851044451	552.718494665770	237.367828146140	348.412566267837	805.041129536106	406.884331647465	569.760477462217	737.155352069706	300.216488272502	628.962378353623	782.843988896215	207.538148017214	566.305278985819	652.309532895237	42.541163852484	533.040392371076	823.272566716284	97.770043913703	571.121325037483	734.937982382019	36.256700031724	608.676435834046	943.006616392334	44.603071231511	599.417901513873	356.477787205294	181.120851779445	383.446438130670	415.683678932201	133.811934726817	305.634404544992	519.930008287874	139.601085412070	329.419796967565	596.086023302922	32.706306757146	306.521966666410	664.758810047627	1095.951231583743	192.473445454338	844.905451123868	905.581788155452	212.819090469237	652.935558972133	1082.688250968369	787.608583266745	815.648055987141	880.408109873381	780.468781839382	
92	11.972500000000	732.621053757817	962.090548503829	340.306467004930	516.835385475863	996.297261529748	496.499850207351	678.781697649341	1441.228971137234	338.342442504762	780.709788599711	1365.653417187412	497.752659493364	690.019365172253	1427.069073987731	674.681527351270	673.745203150448	1493.501713810754	492.566282217217	747.626246517295	939.445594563629	613.699287646422	806.910078462615	746.142784209699	583.932956368773	735.043654896194	632.063014012764	639.827624751223	818.388121252728	586.971439237199	560.421372615415	827.094140062981	496.446882020362	565.383660705614	788.332297694357	747.492511682520	360.012346071060	711.756586195638	629.822559398467	291.030569095506	803.016723815414	549.476614797176	347.314489609360	798.187865354156	460.401186826941	341.919170358605	726.176705130331	401.747810308307	337.661521056090	582.246858823471	368.356257877518	290.485222436742	559.917808962793	242.706010676098	349.185162593737	800.301503160649	406.540887171833	571.405229869782	731.674710781517	300.070018431312	630.020872228273	777.067313776539	207.352360171244	567.210720321788	645.673326045570	42.664909362846	533.243244018617	816.845019976501	97.687139372073	571.460115908515	728.308677613445	36.237612704518	608.836910958519	936.436690037267	44.104331389151	599.635058707138	362.920401195443	190.601179653368	385.995449589181	420.194787502746	142.325776725131	307.161120119111	525.104154066325	145.098674017118	329.940928280532	598.031584333771	34.044541825638	305.146434346260	659.857769249684	1096.327909251978	195.797052275719	835.511316099331	901.273233130728	212.350082772781	658.180471577011	1083.623269173549	792.014247728202	824.104487953032	884.076209284302	784.180162872493	
